 http://www.imdb.com/title/tt1408101/


After the crew of the Enterprise find an unstoppable force of terror from within their own organization, Captain Kirk leads a manhunt to a war-zone world to capture a one man weapon of mass destruction. 



Director:
 J.J. Abrams 

Writers:
 Roberto Orci, Alex Kurtzman

Stars:
 Chris Pine, Zachary Quinto, Zoe Saldana

Genres:
  Action |  Adventure |  Sci-Fi 

Country:
 USA 

Language:
 English | Klingon 



Format                                   : AVI
Format/Info                              : Audio Video Interleave
File size                                : 699 MiB
Duration                                 : 1h 59mn
Overall bit rate                         : 814 Kbps
Writing application                      : Lavf55.3.100

Video
ID                                       : 0
Format                                   : MPEG-4 Visual
Format profile                           : Simple@L3
Format settings, BVOP                    : No
Format settings, QPel                    : No
Format settings, GMC                     : No warppoints
Format settings, Matrix                  : Default (H.263)
Codec ID                                 : XVID
Codec ID/Hint                            : XviD
Duration                                 : 1h 59mn
Bit rate                                 : 740 Kbps
Width                                    : 640 pixels
Height                                   : 270 pixels
Display aspect ratio                     : 2.35:1
Original display aspect ratio            : 2.40:1
Frame rate                               : 25.000 fps
Color space                              : YUV
Chroma subsampling                       : 4:2:0
Bit depth                                : 8 bits
Scan type                                : Progressive
Compression mode                         : Lossy
Bits/(Pixel*Frame)                       : 0.171
Stream size                              : 635 MiB (91%)
Writing library                          : XviD 64

Audio
ID                                       : 1
Format                                   : AC-3
Format/Info                              : Audio Coding 3
Mode extension                           : CM (complete main)
Format settings, Endianness              : Big
Codec ID                                 : 2000
Duration                                 : 1h 59mn
Bit rate mode                            : Constant
Bit rate                                 : 64.0 Kbps
Channel(s)                               : 2 channels
Channel positions                        : Front: L R
Sampling rate                            : 44.1 KHz
Bit depth                                : 16 bits
Compression mode                         : Lossy
Stream size                              : 54.9 MiB (8%)
Alignment                                : Aligned on interleaves
Interleave, duration                     : 35 ms (0.87 video frame)





screens


    	http://addpix.net/viewer.php?file=70088896513769236413.jpg
    	http://addpix.net/viewer.php?file=26244738018147014267.jpg
    	http://addpix.net/viewer.php?file=88680666898952711304.jpg
    	http://addpix.net/viewer.php?file=51016339659762358024.jpg
    	http://addpix.net/viewer.php?file=23767779236311062839.jpg
    	http://addpix.net/viewer.php?file=90569854997805654565.jpg